HIERARCHY
ROOT Hips
{
	OFFSET 0.000000 0.000000 0.000000 
	CHANNELS 6 Xposition Yposition Zposition Zrotation Yrotation Xrotation
	JOINT LeftUpLeg
	{
		OFFSET 1.363060 -1.794630 0.839290 
		CHANNELS 3 Zrotation Yrotation Xrotation
		JOINT LeftLeg
		{
			OFFSET 2.448110 -6.726130 0.000000 
			CHANNELS 3 Zrotation Yrotation Xrotation
			JOINT LeftFoot
			{
				OFFSET 2.562200 -7.039590 0.000000 
				CHANNELS 3 Zrotation Yrotation Xrotation
				JOINT LeftToeBase
				{
					OFFSET 0.157640 -0.433110 2.322550 
					CHANNELS 3 Zrotation Yrotation Xrotation
					End Site
					{
						OFFSET 0.000000 0.000000 0.000000 
					}
				}
			}
		}
	}
	JOINT RightUpLeg
	{
		OFFSET -1.305520 -1.794630 0.839290 
		CHANNELS 3 Zrotation Yrotation Xrotation
		JOINT RightLeg
		{
			OFFSET -2.542530 -6.985550 0.000000 
			CHANNELS 3 Zrotation Yrotation Xrotation
			JOINT RightFoot
			{
				OFFSET -2.568260 -7.056230 0.000000 
				CHANNELS 3 Zrotation Yrotation Xrotation
				JOINT RightToeBase
				{
					OFFSET -0.164730 -0.452590 2.363150 
					CHANNELS 3 Zrotation Yrotation Xrotation
					End Site
					{
						OFFSET 0.000000 0.000000 0.000000 
					}
				}
			}
		}
	}
	JOINT Spine
	{
		OFFSET 0.028270 2.035590 -0.193380 
		CHANNELS 3 Zrotation Yrotation Xrotation
		JOINT Spine1
		{
			OFFSET 0.056720 2.048850 -0.042750 
			CHANNELS 3 Zrotation Yrotation Xrotation
			JOINT Neck1
			{
				OFFSET -0.054170 1.746240 0.172020 
				CHANNELS 3 Zrotation Yrotation Xrotation
				JOINT Head
				{
					OFFSET 0.104070 1.761360 -0.123970 
					CHANNELS 3 Zrotation Yrotation Xrotation
					End Site
					{
						OFFSET 0.000000 0.000000 0.000000 
					}
				}
			}
			JOINT LeftArm
			{
				OFFSET 3.362410 1.200890 -0.311210 
				CHANNELS 3 Zrotation Yrotation Xrotation
				JOINT LeftForeArm
				{
					OFFSET 4.983000 -0.000000 -0.000000 
					CHANNELS 3 Zrotation Yrotation Xrotation
					JOINT LeftHand
					{
						OFFSET 3.483560 -0.000000 -0.000000 
						CHANNELS 3 Zrotation Yrotation Xrotation
						JOINT LeftHandIndex1
						{
							OFFSET 0.715260 -0.000000 -0.000000 
							CHANNELS 3 Zrotation Yrotation Xrotation
							End Site
							{
								OFFSET 0.000000 0.000000 0.000000 
							}
						}
					}
				}
			}
			JOINT RightArm
			{
				OFFSET -3.136600 1.374050 -0.404650 
				CHANNELS 3 Zrotation Yrotation Xrotation
				JOINT RightForeArm
				{
					OFFSET -5.241900 -0.000000 -0.000000 
					CHANNELS 3 Zrotation Yrotation Xrotation
					JOINT RightHand
					{
						OFFSET -3.444170 -0.000000 -0.000000 
						CHANNELS 3 Zrotation Yrotation Xrotation
						JOINT RightHandIndex1
						{
							OFFSET -0.622530 -0.000000 -0.000000 
							CHANNELS 3 Zrotation Yrotation Xrotation
							End Site
							{
								OFFSET 0.000000 0.000000 0.000000 
							}
						}
					}
				}
			}
		}
	}
}
MOTION
Frames: 13
Frame Time: 0.041667
-0.844270 17.404406 -1.866336 -128.442779 -86.733648 123.124358 -20.338440 7.695472 7.748618 0.320863 2.844930 8.092437 -0.767806 7.892070 -7.202556 0.012400 -0.717900 -1.973000 28.229687 2.970805 -0.785128 -1.751254 -9.446913 26.981897 0.921026 -10.535158 -16.952333 -0.004700 -0.442000 1.214500 1.102312 -0.176391 1.861071 -2.516565 0.023242 10.416662 6.230046 -1.781605 17.666426 0.049500 -0.178900 5.690400 -76.122409 0.104287 31.774047 14.456603 -28.325156 -4.904092 -0.656242 -1.287758 -20.345724 -7.125000 0.000000 0.000000 75.948337 0.539406 25.498149 -14.827240 28.516635 -4.940687 1.045186 0.334804 -1.141495 7.125000 0.000000 0.000000 
-0.846875 17.405032 -1.866649 -128.174146 -86.748087 122.876898 -20.345043 7.684476 7.766848 0.317674 2.822527 8.033581 -0.768982 7.895407 -7.188155 0.012000 -0.707000 -1.943000 28.218465 2.956645 -0.816570 -1.752257 -9.449231 26.986392 0.927762 -10.564197 -16.944316 -0.003800 -0.397900 1.093400 1.094406 -0.158903 1.835195 -2.564642 0.038142 10.311391 6.247567 -1.785235 17.677604 0.056900 -0.179500 5.701400 -76.099500 0.184271 31.837812 14.468224 -28.337999 -4.907449 -0.658339 -1.284444 -20.344696 -7.125000 0.000000 0.000000 76.010328 0.427518 25.436671 -14.832162 28.526644 -4.944535 1.045427 0.331724 -1.125754 7.125000 0.000000 0.000000 
-0.848335 17.404406 -1.867587 -128.456535 -86.791863 123.156831 -20.395147 7.668054 7.755638 0.319760 2.841979 8.081211 -0.766342 7.886443 -7.220054 0.012600 -0.724900 -1.992300 28.174611 2.953995 -0.791280 -1.751464 -9.443130 26.976123 0.922739 -10.546086 -16.960898 -0.004400 -0.426900 1.173100 1.097555 -0.172139 1.855548 -2.513253 0.023128 10.402161 6.240873 -1.768406 17.662579 0.053500 -0.170800 5.704200 -76.131782 0.107332 31.797760 14.469414 -28.336953 -4.907515 -0.659715 -1.278832 -20.355783 -7.125000 0.000000 0.000000 75.981124 0.507251 25.463124 -14.833170 28.522591 -4.943921 1.046828 0.330996 -1.165245 7.125000 0.000000 0.000000 
-0.849689 17.405032 -1.868108 -127.509553 -86.741042 122.244579 -20.316258 7.638501 7.709319 0.322618 2.851644 8.114186 -0.764244 7.873538 -7.229499 0.012100 -0.711600 -1.955500 28.258728 2.968316 -0.820137 -1.746718 -9.444373 26.962592 0.928378 -10.577099 -16.968444 -0.004100 -0.414100 1.137900 1.101846 -0.179832 1.846992 -2.539298 0.024104 10.379866 6.239023 -1.756869 17.663445 0.056000 -0.165700 5.710900 -76.135741 0.120773 31.780228 14.473818 -28.340165 -4.910154 -0.657641 -1.281831 -20.325109 -7.125000 0.000000 0.000000 76.001118 0.497333 25.424941 -14.819447 28.507966 -4.938304 1.045978 0.330269 -1.109029 7.125000 0.000000 0.000000 
-0.851044 17.405344 -1.868733 -127.051758 -86.731820 121.808906 -20.294690 7.607831 7.667566 0.325768 2.869717 8.164857 -0.761621 7.861991 -7.252201 0.012200 -0.712800 -1.958900 28.285987 2.971973 -0.832201 -1.743612 -9.442415 26.949745 0.931420 -10.594577 -16.975064 -0.004000 -0.410000 1.126600 1.103801 -0.186330 1.844516 -2.545291 0.021666 10.377239 6.236302 -1.744014 17.657580 0.055500 -0.159400 5.714800 -76.145018 0.117837 31.758939 14.479797 -28.345177 -4.913193 -0.656681 -1.282432 -20.296044 -7.125000 0.000000 0.000000 76.013288 0.500996 25.409069 -14.812780 28.499950 -4.935423 1.046454 0.328751 -1.103955 7.125000 0.000000 0.000000 
-0.852295 17.405657 -1.869254 -126.576793 -86.719762 121.356448 -20.270496 7.572065 7.612146 0.330391 2.897101 8.240581 -0.758050 7.846478 -7.284369 0.012300 -0.715200 -1.965600 28.317054 2.976978 -0.841759 -1.739920 -9.439422 26.933604 0.934155 -10.610793 -16.982224 -0.004000 -0.410000 1.126600 1.106226 -0.194269 1.842957 -2.550803 0.018614 10.377203 6.231970 -1.729668 17.649935 0.054500 -0.152500 5.717400 -76.155959 0.112258 31.730949 14.485549 -28.349820 -4.916516 -0.655190 -1.283884 -20.260259 -7.125000 0.000000 0.000000 76.023612 0.509984 25.397339 -14.806454 28.491795 -4.932467 1.047065 0.327256 -1.102806 7.125000 0.000000 0.000000 
-0.853545 17.405969 -1.869671 -126.165981 -86.709449 120.967698 -20.249452 7.545357 7.574420 0.333156 2.912305 8.283165 -0.756370 7.839200 -7.300540 0.012400 -0.719700 -1.977900 28.343252 2.981468 -0.854315 -1.737430 -9.438615 26.924393 0.936321 -10.624788 -16.989768 -0.004000 -0.407000 1.118200 1.107858 -0.200903 1.840300 -2.559213 0.016490 10.370896 6.225910 -1.714352 17.641742 0.052000 -0.145100 5.718900 -76.166597 0.113563 31.711719 14.509809 -28.377278 -4.930500 -0.654434 -1.295161 -20.231505 -7.125000 0.000000 0.000000 76.035852 0.513988 25.386905 -14.800558 28.484560 -4.929809 1.047539 0.325751 -1.101556 7.125000 0.000000 0.000000 
-0.855004 17.406282 -1.870088 -125.899035 -86.707395 120.716935 -20.240695 7.525238 7.548636 0.335002 2.922610 8.311615 -0.755411 7.836191 -7.311970 0.012800 -0.729300 -2.004300 28.355898 2.983637 -0.863089 -1.735961 -9.437946 26.918600 0.937551 -10.633748 -16.997574 -0.003900 -0.403800 1.109500 1.108415 -0.206367 1.838754 -2.565892 0.014679 10.366969 6.219722 -1.697615 17.632520 0.049100 -0.137000 5.718700 -76.178637 0.116388 31.708211 14.566081 -28.443788 -4.963158 -0.655344 -1.323155 -20.223676 -7.125000 0.000000 0.000000 76.047856 0.518182 25.380651 -14.796425 28.479371 -4.927715 1.047897 0.324262 -1.103469 7.125000 0.000000 0.000000 
-0.856672 17.406595 -1.870400 -125.728019 -86.709395 120.561118 -20.238056 7.512229 7.535541 0.335596 2.925809 8.320176 -0.755234 7.836106 -7.316228 0.013100 -0.738200 -2.028800 28.361133 2.985809 -0.870914 -1.735298 -9.438209 26.916927 0.937991 -10.639167 -17.005767 -0.003800 -0.399500 1.097600 1.108251 -0.210286 1.837767 -2.571175 0.013410 10.364345 6.214324 -1.682099 17.624357 0.046800 -0.129500 5.718800 -76.191564 0.119259 31.726781 14.665115 -28.562675 -5.021636 -0.658032 -1.375049 -20.237799 -7.125000 0.000000 0.000000 76.058963 0.521971 25.377534 -14.794123 28.476313 -4.926476 1.048044 0.323278 -1.103835 7.125000 0.000000 0.000000 
-0.858652 17.406907 -1.870609 -125.663952 -86.716217 120.508220 -20.243402 7.507148 7.536295 0.334928 2.921837 8.308861 -0.755841 7.839853 -7.314247 0.013400 -0.747000 -2.052800 28.356652 2.985749 -0.877773 -1.735525 -9.439087 26.918615 0.937823 -10.641354 -17.012122 -0.003700 -0.394300 1.083500 1.107147 -0.213324 1.837350 -2.576289 0.012518 10.363207 6.209018 -1.666386 17.616321 0.044400 -0.121900 5.717600 -76.205862 0.125384 31.769947 14.812556 -28.741701 -5.110751 -0.662751 -1.453884 -20.284897 -7.125000 0.000000 0.000000 76.070243 0.524865 25.377222 -14.792273 28.473949 -4.925341 1.047775 0.322419 -1.100705 7.125000 0.000000 0.000000 
-0.860528 17.407220 -1.870922 -125.665840 -86.728083 120.523282 -20.255259 7.505474 7.544107 0.333319 2.912133 8.281512 -0.757254 7.847198 -7.305246 0.013700 -0.754400 -2.073300 28.345573 2.986957 -0.885781 -1.736360 -9.440574 26.923003 0.936914 -10.640674 -17.020976 -0.003700 -0.391500 1.075800 1.105392 -0.215989 1.836978 -2.579595 0.011677 10.362744 6.204123 -1.652522 17.609145 0.042200 -0.115200 5.716800 -76.220021 0.130844 31.828477 15.001521 -28.972847 -5.229437 -0.667883 -1.558225 -20.348726 -7.125000 0.000000 0.000000 76.082114 0.525967 25.380732 -14.792995 28.474617 -4.925294 1.047405 0.321936 -1.098960 7.125000 0.000000 0.000000 
-0.862612 17.407429 -1.871130 -125.711661 -86.743363 120.580373 -20.271498 7.506933 7.559112 0.331065 2.898695 8.243696 -0.758919 7.855251 -7.293616 0.013800 -0.757700 -2.082300 28.329096 2.987022 -0.892618 -1.737441 -9.442195 26.928708 0.934967 -10.635517 -17.031184 -0.003700 -0.391600 1.075900 1.103370 -0.218883 1.837339 -2.580966 0.010327 10.364847 6.199066 -1.638614 17.601111 0.040200 -0.108600 5.715200 -76.235726 0.135594 31.893297 15.221984 -29.244480 -5.373616 -0.671721 -1.681924 -20.420545 -7.125000 0.000000 0.000000 76.092601 0.529742 25.387708 -14.793365 28.474872 -4.925024 1.047018 0.321287 -1.097794 7.125000 0.000000 0.000000 
-0.864697 17.407637 -1.871338 -125.826387 -86.760804 120.706472 -20.292444 7.511105 7.576373 0.328460 2.883739 8.201233 -0.760774 7.864706 -7.280161 0.013900 -0.760100 -2.089000 28.307718 2.986709 -0.899174 -1.738842 -9.443789 26.935061 0.932417 -10.626897 -17.040204 -0.003700 -0.393400 1.080800 1.100780 -0.220388 1.838194 -2.583427 0.009772 10.367984 6.191260 -1.625406 17.590968 0.036000 -0.102200 5.711600 -76.249035 0.139255 31.954582 15.440275 -29.515384 -5.522690 -0.673046 -1.806155 -20.491410 -7.125000 0.000000 0.000000 76.103846 0.534364 25.395773 -14.792996 28.474445 -4.924344 1.046607 0.320434 -1.098019 7.125000 0.000000 0.000000 
